<svg width="900" height="500" viewBox="0 0 900 500" xmlns="http://www.w3.org/2000/svg">
<defs>
  <radialGradient id="bg" cx="50%" cy="50%" r="75%">
    <stop offset="0%" stop-color="#161b2e"/>
    <stop offset="100%" stop-color="#05060d"/>
  </radialGradient>
  <filter id="glow" x="-200%" y="-200%" width="500%" height="500%">
    <feGaussianBlur stdDeviation="3.2" result="blur"/>
    <feMerge>
      <feMergeNode in="blur"/>
      <feMergeNode in="SourceGraphic"/>
    </feMerge>
  </filter>
</defs>
<rect width="900" height="500" fill="url(#bg)"/>
<circle cx="575.5" cy="12.5" r="0.47" fill="#8fa3c7" opacity="0.12"/>
<circle cx="662.8" cy="338.3" r="0.84" fill="#8fa3c7" opacity="0.09"/>
<circle cx="379.7" cy="14.9" r="0.43" fill="#8fa3c7" opacity="0.17"/>
<circle cx="23.9" cy="99.4" r="0.69" fill="#8fa3c7" opacity="0.17"/>
<circle cx="198.4" cy="294.6" r="0.79" fill="#8fa3c7" opacity="0.08"/>
<circle cx="725.2" cy="349.1" r="0.50" fill="#8fa3c7" opacity="0.11"/>
<circle cx="861.5" cy="168.3" r="0.36" fill="#8fa3c7" opacity="0.10"/>
<circle cx="762.7" cy="301.9" r="0.78" fill="#8fa3c7" opacity="0.20"/>
<circle cx="482.6" cy="486.6" r="0.53" fill="#8fa3c7" opacity="0.17"/>
<circle cx="746.5" cy="309.3" r="0.82" fill="#8fa3c7" opacity="0.18"/>
<circle cx="634.1" cy="22.9" r="0.44" fill="#8fa3c7" opacity="0.13"/>
<circle cx="71.8" cy="116.4" r="0.36" fill="#8fa3c7" opacity="0.13"/>
<circle cx="572.1" cy="182.4" r="0.52" fill="#8fa3c7" opacity="0.12"/>
<circle cx="240.3" cy="468.3" r="0.69" fill="#8fa3c7" opacity="0.18"/>
<circle cx="154.0" cy="364.6" r="0.40" fill="#8fa3c7" opacity="0.14"/>
<circle cx="890.6" cy="320.0" r="0.63" fill="#8fa3c7" opacity="0.20"/>
<circle cx="758.6" cy="388.0" r="0.44" fill="#8fa3c7" opacity="0.09"/>
<circle cx="283.9" cy="133.9" r="0.43" fill="#8fa3c7" opacity="0.24"/>
<circle cx="788.7" cy="157.3" r="0.69" fill="#8fa3c7" opacity="0.15"/>
<circle cx="823.1" cy="229.4" r="0.46" fill="#8fa3c7" opacity="0.12"/>
<circle cx="505.2" cy="131.4" r="0.65" fill="#8fa3c7" opacity="0.23"/>
<circle cx="359.5" cy="109.7" r="0.90" fill="#8fa3c7" opacity="0.17"/>
<circle cx="81.8" cy="23.6" r="0.37" fill="#8fa3c7" opacity="0.19"/>
<circle cx="712.9" cy="211.1" r="0.34" fill="#8fa3c7" opacity="0.14"/>
<circle cx="896.5" cy="264.6" r="0.88" fill="#8fa3c7" opacity="0.23"/>
<circle cx="10.3" cy="360.4" r="0.71" fill="#8fa3c7" opacity="0.17"/>
<circle cx="240.1" cy="320.5" r="0.37" fill="#8fa3c7" opacity="0.15"/>
<circle cx="408.4" cy="476.9" r="0.83" fill="#8fa3c7" opacity="0.12"/>
<circle cx="450.5" cy="89.3" r="0.85" fill="#8fa3c7" opacity="0.23"/>
<circle cx="268.6" cy="319.5" r="0.67" fill="#8fa3c7" opacity="0.11"/>
<circle cx="686.3" cy="269.7" r="0.77" fill="#8fa3c7" opacity="0.17"/>
<circle cx="0.5" cy="162.1" r="0.31" fill="#8fa3c7" opacity="0.24"/>
<circle cx="790.8" cy="415.8" r="0.48" fill="#8fa3c7" opacity="0.09"/>
<circle cx="790.2" cy="473.5" r="0.35" fill="#8fa3c7" opacity="0.16"/>
<circle cx="62.3" cy="380.3" r="0.76" fill="#8fa3c7" opacity="0.10"/>
<circle cx="427.8" cy="274.9" r="0.46" fill="#8fa3c7" opacity="0.23"/>
<circle cx="380.8" cy="105.9" r="0.62" fill="#8fa3c7" opacity="0.20"/>
<circle cx="181.0" cy="155.9" r="0.90" fill="#8fa3c7" opacity="0.19"/>
<circle cx="394.3" cy="258.8" r="0.37" fill="#8fa3c7" opacity="0.12"/>
<circle cx="304.3" cy="294.2" r="0.44" fill="#8fa3c7" opacity="0.12"/>
<circle cx="63.9" cy="315.6" r="0.44" fill="#8fa3c7" opacity="0.23"/>
<circle cx="773.7" cy="35.4" r="0.44" fill="#8fa3c7" opacity="0.19"/>
<circle cx="192.8" cy="66.2" r="0.86" fill="#8fa3c7" opacity="0.18"/>
<circle cx="425.4" cy="392.3" r="0.78" fill="#8fa3c7" opacity="0.11"/>
<circle cx="87.2" cy="215.5" r="0.55" fill="#8fa3c7" opacity="0.16"/>
<circle cx="656.2" cy="336.7" r="0.89" fill="#8fa3c7" opacity="0.10"/>
<circle cx="362.4" cy="169.7" r="0.82" fill="#8fa3c7" opacity="0.12"/>
<circle cx="171.2" cy="224.3" r="0.55" fill="#8fa3c7" opacity="0.13"/>
<circle cx="224.8" cy="461.6" r="0.57" fill="#8fa3c7" opacity="0.23"/>
<circle cx="495.3" cy="25.3" r="0.90" fill="#8fa3c7" opacity="0.22"/>
<circle cx="872.1" cy="463.2" r="0.81" fill="#8fa3c7" opacity="0.11"/>
<circle cx="437.1" cy="106.9" r="0.54" fill="#8fa3c7" opacity="0.09"/>
<circle cx="341.1" cy="492.7" r="0.46" fill="#8fa3c7" opacity="0.21"/>
<circle cx="409.5" cy="211.5" r="0.87" fill="#8fa3c7" opacity="0.25"/>
<circle cx="500.2" cy="359.2" r="0.39" fill="#8fa3c7" opacity="0.13"/>
<circle cx="871.8" cy="289.6" r="0.63" fill="#8fa3c7" opacity="0.21"/>
<circle cx="51.4" cy="292.1" r="0.60" fill="#8fa3c7" opacity="0.22"/>
<circle cx="141.7" cy="480.4" r="0.35" fill="#8fa3c7" opacity="0.11"/>
<circle cx="535.5" cy="337.6" r="0.44" fill="#8fa3c7" opacity="0.10"/>
<circle cx="801.3" cy="123.1" r="0.66" fill="#8fa3c7" opacity="0.19"/>
<circle cx="377.3" cy="291.8" r="0.61" fill="#8fa3c7" opacity="0.24"/>
<circle cx="183.8" cy="358.1" r="0.44" fill="#8fa3c7" opacity="0.15"/>
<circle cx="604.5" cy="150.0" r="0.49" fill="#8fa3c7" opacity="0.21"/>
<circle cx="65.3" cy="229.1" r="0.90" fill="#8fa3c7" opacity="0.25"/>
<circle cx="65.9" cy="106.6" r="0.46" fill="#8fa3c7" opacity="0.24"/>
<circle cx="792.8" cy="439.6" r="0.52" fill="#8fa3c7" opacity="0.11"/>
<circle cx="750.4" cy="351.8" r="0.67" fill="#8fa3c7" opacity="0.25"/>
<circle cx="588.6" cy="3.9" r="0.79" fill="#8fa3c7" opacity="0.13"/>
<circle cx="597.0" cy="469.5" r="0.38" fill="#8fa3c7" opacity="0.10"/>
<circle cx="96.3" cy="276.6" r="0.46" fill="#8fa3c7" opacity="0.18"/>
<circle cx="645.9" cy="101.8" r="0.68" fill="#8fa3c7" opacity="0.12"/>
<circle cx="439.7" cy="452.7" r="0.81" fill="#8fa3c7" opacity="0.10"/>
<circle cx="381.2" cy="138.3" r="0.30" fill="#8fa3c7" opacity="0.21"/>
<circle cx="573.4" cy="131.0" r="0.74" fill="#8fa3c7" opacity="0.17"/>
<circle cx="384.9" cy="4.8" r="0.35" fill="#8fa3c7" opacity="0.23"/>
<circle cx="813.5" cy="272.8" r="0.80" fill="#8fa3c7" opacity="0.18"/>
<circle cx="133.3" cy="63.7" r="0.48" fill="#8fa3c7" opacity="0.23"/>
<circle cx="716.5" cy="430.4" r="0.84" fill="#8fa3c7" opacity="0.12"/>
<circle cx="224.6" cy="51.4" r="0.77" fill="#8fa3c7" opacity="0.23"/>
<circle cx="365.7" cy="310.3" r="0.39" fill="#8fa3c7" opacity="0.24"/>
<circle cx="778.1" cy="488.1" r="0.79" fill="#8fa3c7" opacity="0.23"/>
<circle cx="22.3" cy="368.3" r="0.50" fill="#8fa3c7" opacity="0.24"/>
<circle cx="722.0" cy="432.0" r="0.79" fill="#8fa3c7" opacity="0.13"/>
<circle cx="708.6" cy="54.0" r="0.82" fill="#8fa3c7" opacity="0.23"/>
<circle cx="200.2" cy="408.3" r="0.58" fill="#8fa3c7" opacity="0.13"/>
<circle cx="715.8" cy="113.8" r="0.31" fill="#8fa3c7" opacity="0.11"/>
<circle cx="295.4" cy="432.2" r="0.88" fill="#8fa3c7" opacity="0.13"/>
<circle cx="577.3" cy="199.8" r="0.89" fill="#8fa3c7" opacity="0.17"/>
<circle cx="845.3" cy="57.7" r="0.88" fill="#8fa3c7" opacity="0.11"/>
<circle cx="866.3" cy="132.7" r="0.37" fill="#8fa3c7" opacity="0.15"/>
<circle cx="655.7" cy="156.8" r="0.66" fill="#8fa3c7" opacity="0.17"/>
<circle cx="346.7" cy="288.3" r="0.45" fill="#8fa3c7" opacity="0.20"/>
<circle cx="1.5" cy="462.8" r="0.62" fill="#8fa3c7" opacity="0.20"/>
<circle cx="667.8" cy="335.3" r="0.52" fill="#8fa3c7" opacity="0.09"/>
<circle cx="597.8" cy="165.1" r="0.49" fill="#8fa3c7" opacity="0.22"/>
<circle cx="647.8" cy="150.2" r="0.49" fill="#8fa3c7" opacity="0.15"/>
<circle cx="362.2" cy="147.8" r="0.38" fill="#8fa3c7" opacity="0.15"/>
<circle cx="846.3" cy="338.7" r="0.84" fill="#8fa3c7" opacity="0.18"/>
<circle cx="270.9" cy="274.0" r="0.30" fill="#8fa3c7" opacity="0.13"/>
<circle cx="386.9" cy="290.0" r="0.69" fill="#8fa3c7" opacity="0.16"/>
<circle cx="397.9" cy="106.9" r="0.58" fill="#8fa3c7" opacity="0.23"/>
<circle cx="716.4" cy="84.8" r="0.35" fill="#8fa3c7" opacity="0.17"/>
<circle cx="569.6" cy="167.6" r="0.79" fill="#8fa3c7" opacity="0.21"/>
<circle cx="605.5" cy="112.3" r="0.42" fill="#8fa3c7" opacity="0.08"/>
<circle cx="220.4" cy="237.6" r="0.81" fill="#8fa3c7" opacity="0.09"/>
<circle cx="373.0" cy="314.9" r="0.42" fill="#8fa3c7" opacity="0.20"/>
<circle cx="444.9" cy="122.0" r="0.69" fill="#8fa3c7" opacity="0.08"/>
<circle cx="675.9" cy="385.0" r="0.36" fill="#8fa3c7" opacity="0.15"/>
<circle cx="158.3" cy="479.0" r="0.61" fill="#8fa3c7" opacity="0.09"/>
<circle cx="224.3" cy="424.2" r="0.57" fill="#8fa3c7" opacity="0.22"/>
<circle cx="600.8" cy="493.9" r="0.66" fill="#8fa3c7" opacity="0.24"/>
<circle cx="802.3" cy="306.3" r="0.73" fill="#8fa3c7" opacity="0.17"/>
<circle cx="747.5" cy="273.9" r="0.84" fill="#8fa3c7" opacity="0.21"/>
<circle cx="427.2" cy="129.6" r="0.45" fill="#8fa3c7" opacity="0.19"/>
<circle cx="689.2" cy="260.6" r="0.68" fill="#8fa3c7" opacity="0.13"/>
<circle cx="69.7" cy="142.9" r="0.46" fill="#8fa3c7" opacity="0.13"/>
<circle cx="486.1" cy="69.2" r="0.44" fill="#8fa3c7" opacity="0.20"/>
<circle cx="635.8" cy="32.1" r="0.54" fill="#8fa3c7" opacity="0.17"/>
<circle cx="374.2" cy="103.4" r="0.55" fill="#8fa3c7" opacity="0.23"/>
<circle cx="525.7" cy="347.8" r="0.81" fill="#8fa3c7" opacity="0.21"/>
<circle cx="342.3" cy="2.9" r="0.51" fill="#8fa3c7" opacity="0.21"/>
<circle cx="768.1" cy="476.7" r="0.55" fill="#8fa3c7" opacity="0.21"/>
<circle cx="491.5" cy="301.6" r="0.43" fill="#8fa3c7" opacity="0.12"/>
<circle cx="392.3" cy="14.5" r="0.50" fill="#8fa3c7" opacity="0.20"/>
<circle cx="363.9" cy="82.5" r="0.58" fill="#8fa3c7" opacity="0.10"/>
<circle cx="560.0" cy="13.5" r="0.54" fill="#8fa3c7" opacity="0.18"/>
<circle cx="24.4" cy="321.4" r="0.38" fill="#8fa3c7" opacity="0.16"/>
<circle cx="45.3" cy="189.6" r="0.43" fill="#8fa3c7" opacity="0.14"/>
<circle cx="685.1" cy="189.6" r="0.75" fill="#8fa3c7" opacity="0.22"/>
<circle cx="227.0" cy="41.0" r="0.31" fill="#8fa3c7" opacity="0.17"/>
<circle cx="899.9" cy="175.0" r="0.69" fill="#8fa3c7" opacity="0.21"/>
<circle cx="586.6" cy="377.1" r="0.87" fill="#8fa3c7" opacity="0.11"/>
<circle cx="18.3" cy="76.2" r="0.38" fill="#8fa3c7" opacity="0.19"/>
<circle cx="507.6" cy="109.0" r="0.72" fill="#8fa3c7" opacity="0.21"/>
<circle cx="151.0" cy="303.6" r="0.75" fill="#8fa3c7" opacity="0.10"/>
<circle cx="737.4" cy="482.4" r="0.36" fill="#8fa3c7" opacity="0.08"/>
<circle cx="280.8" cy="338.7" r="0.87" fill="#8fa3c7" opacity="0.15"/>
<circle cx="643.5" cy="38.0" r="0.71" fill="#8fa3c7" opacity="0.19"/>
<circle cx="91.7" cy="386.2" r="0.81" fill="#8fa3c7" opacity="0.18"/>
<circle cx="108.9" cy="491.9" r="0.77" fill="#8fa3c7" opacity="0.14"/>
<polyline points="450.0,250.0 450.6,250.0 451.1,250.1 451.6,250.2 452.2,250.4 452.7,250.7 453.2,251.0 453.6,251.3 454.1,251.7 454.5,252.2 454.8,252.7 455.2,253.2 455.4,253.8 455.7,254.4 455.9,255.0 456.0,255.7 456.1,256.4 456.1,257.1 456.1,257.8 456.0,258.6 455.9,259.3 455.7,260.1 455.4,260.9 455.1,261.6 454.7,262.4 454.2,263.1 453.7,263.9 453.1,264.6 452.5,265.2 451.7,265.9 451.0,266.5 450.1,267.1 449.3,267.6 448.3,268.1 447.3,268.6 446.3,268.9 445.2,269.3 444.1,269.5 442.9,269.7 441.7,269.9 440.5,269.9 439.3,269.9 438.0,269.8 436.7,269.6 435.4,269.4 434.1,269.0 432.8,268.6 431.5,268.1 430.2,267.5 428.9,266.8 427.6,266.1 426.4,265.2 425.1,264.3 424.0,263.3 422.8,262.2 421.7,261.0 420.7,259.7 419.7,258.4 418.8,256.9 417.9,255.5 417.1,253.9 416.4,252.3 415.8,250.6 415.3,248.9 414.8,247.1 414.5,245.2 414.2,243.3 414.1,241.4 414.0,239.5 414.1,237.5 414.2,235.5 414.5,233.5 414.9,231.4 415.4,229.4 416.0,227.4 416.8,225.4 417.6,223.4 418.6,221.4 419.7,219.5 420.9,217.6 422.2,215.7 423.7,213.9 425.2,212.2 426.9,210.5 428.6,208.9 430.5,207.4 432.5,205.9 434.5,204.6 436.7,203.3 438.9,202.2 441.3,201.2 443.7,200.2 446.1,199.4 448.7,198.7 451.3,198.2 453.9,197.8 456.6,197.5 459.3,197.3 462.1,197.3 464.9,197.5 467.7,197.8 470.5,198.2 473.3,198.8 476.1,199.6 478.9,200.5 481.7,201.5 484.4,202.7 487.1,204.1 489.7,205.6 492.3,207.3 494.8,209.1 497.2,211.1 499.6,213.2 501.8,215.4 504.0,217.8 506.0,220.3 507.9,222.9 509.7,225.6 511.4,228.5 512.9,231.5 514.3,234.5 515.6,237.7 516.7,240.9 517.6,244.2 518.3,247.6 518.9,251.1 519.3,254.6 519.6,258.1 519.6,261.7 519.5,265.3 519.1,269.0 518.6,272.6 517.9,276.2 517.0,279.8 515.9,283.4 514.6,287.0 513.1,290.5 511.5,293.9 509.6,297.3 507.6,300.6 505.3,303.8 502.9,306.9 500.3,310.0 497.6,312.9 494.7,315.6 491.6,318.3 488.4,320.8 485.0,323.1 481.5,325.3 477.8,327.3 474.1,329.1 470.2,330.8 466.2,332.2 462.1,333.5 457.9,334.5 453.7,335.4 449.4,336.0 445.0,336.4 440.6,336.6 436.2,336.6 431.7,336.3 427.3,335.8 422.8,335.1 418.4,334.1 413.9,332.9 409.6,331.5 405.2,329.8 401.0,327.9 396.8,325.8 392.7,323.5 388.7,320.9 384.8,318.1 381.1,315.2 377.5,312.0 374.0,308.6 370.7,305.0 367.6,301.2 364.6,297.3 361.8,293.1 359.3,288.9 356.9,284.4 354.8,279.9 352.9,275.2 351.2,270.4 349.7,265.4 348.5,260.4 347.6,255.3 346.9,250.2 346.5,244.9 346.3,239.7 346.4,234.4 346.8,229.1 347.4,223.8 348.4,218.5 349.6,213.2 351.0,208.0 352.8,202.8 354.8,197.7 357.1,192.7 359.6,187.8 362.4,183.0 365.5,178.3 368.8,173.7 372.4,169.3 376.2,165.1 380.2,161.1 384.5,157.2 388.9,153.6 393.6,150.1 398.5,146.9 403.5,144.0 408.7,141.2 414.1,138.8 419.6,136.6 425.2,134.6 430.9,133.0 436.8,131.6 442.8,130.6 448.8,129.8 454.8,129.3 461.0,129.2 467.1,129.4 473.3,129.8 479.4,130.6 485.6,131.7 491.7,133.1 497.7,134.9 503.7,136.9 509.6,139.3 515.4,142.0 521.0,144.9 526.6,148.2 531.9,151.8 537.2,155.6 542.2,159.7 547.0,164.1 551.7,168.8 556.1,173.7 560.3,178.8 564.2,184.2 567.8,189.8 571.2,195.6 574.3,201.5 577.1,207.7 579.6,214.0 581.8,220.5 583.7,227.0 585.2,233.7 586.4,240.5 587.3,247.4 587.8,254.3 587.9,261.3 587.7,268.3 587.2,275.3 586.3,282.3 585.0,289.3 583.4,296.3 581.4,303.1 579.0,309.9 576.3,316.6 573.3,323.1 569.9,329.6 566.2,335.8 562.2,341.9 557.8,347.8 553.1,353.5 548.1,359.0 542.9,364.2 537.3,369.2 531.5,373.9 525.4,378.3 519.1,382.5 512.6,386.3 505.9,389.8 498.9,392.9 491.8,395.7 484.6,398.2 477.2,400.3 469.6,402.0 462.0,403.4 454.3,404.3 446.5,404.9 438.6,405.1 430.8,404.8 422.9,404.2 415.0,403.2 407.2,401.8 399.4,400.0 391.8,397.7 384.2,395.1 376.7,392.1 369.3,388.7 362.2,384.9 355.1,380.8 348.3,376.3 341.7,371.4 335.4,366.2 329.3,360.6 323.4,354.8 317.9,348.6 312.6,342.1 307.7,335.3 303.1,328.3 298.8,321.1 294.9,313.6 291.4,305.9 288.2,298.0 285.5,289.9 283.1,281.6 281.2,273.3 279.7,264.8 278.6,256.2 278.0,247.6 277.8,238.9 278.0,230.1 278.7,221.4 279.8,212.7 281.4,204.0 283.4,195.4 285.8,186.9 288.7,178.5 292.0,170.2 295.8,162.1 299.9,154.1 304.5,146.4 309.5,138.8 314.8,131.5 320.6,124.5 326.7,117.7 333.1,111.3 339.9,105.1 347.1,99.3 354.5,93.8 362.2,88.7 370.2,84.0 378.5,79.7 387.0,75.8 395.6,72.3 404.5,69.3 413.6,66.7 422.8,64.5 432.1,62.8 441.5,61.6 451.0,60.9 460.6,60.6 470.2,60.8 479.8,61.6 489.3,62.8 498.9,64.4 508.3,66.6 517.7,69.3 526.9,72.4 536.0,76.0 544.9,80.1 553.7,84.6 562.2,89.6 570.4,95.0 578.5,100.8 586.2,107.1 593.6,113.8 600.7,120.8 607.5,128.2 613.8,136.0 619.8,144.1 625.4,152.5 630.6,161.3 635.4,170.2 639.7,179.5 643.5,189.0 646.9,198.7 649.8,208.5 652.1,218.6 654.0,228.7 655.4,239.0 656.2,249.4 656.5,259.8 656.3,270.2 655.6,280.7 654.3,291.1 652.5,301.5 650.2,311.8 647.4,322.0 644.0,332.0 640.1,341.9 635.7,351.7 630.8,361.2 625.5,370.4 619.6,379.5 613.3,388.2 606.5,396.6 599.3,404.7 591.7,412.5 583.7,419.8 575.3,426.8 566.5,433.4 557.4,439.5 548.0,445.1 538.2,450.3 528.2,455.0 518.0,459.2" fill="none" stroke="#6C63FF" stroke-width="0.6" opacity="0.14"/>
<circle cx="508.7" cy="138.9" r="2.62" fill="#6C63FF" opacity="0.55" filter="url(#glow)"/>
<circle cx="533.0" cy="152.5" r="2.24" fill="#6C63FF" opacity="0.52" filter="url(#glow)"/>
<circle cx="587.6" cy="251.9" r="5.26" fill="#6C63FF" opacity="0.82" filter="url(#glow)"/>
<circle cx="587.9" cy="259.5" r="4.75" fill="#6C63FF" opacity="0.77" filter="url(#glow)"/>
<circle cx="567.6" cy="333.6" r="3.40" fill="#6C63FF" opacity="0.63" filter="url(#glow)"/>
<circle cx="523.2" cy="379.9" r="2.88" fill="#6C63FF" opacity="0.58" filter="url(#glow)"/>
<circle cx="501.5" cy="391.8" r="3.82" fill="#6C63FF" opacity="0.68" filter="url(#glow)"/>
<circle cx="427.3" cy="404.6" r="3.63" fill="#6C63FF" opacity="0.66" filter="url(#glow)"/>
<circle cx="319.5" cy="350.4" r="2.24" fill="#6C63FF" opacity="0.52" filter="url(#glow)"/>
<circle cx="313.7" cy="343.5" r="4.42" fill="#6C63FF" opacity="0.74" filter="url(#glow)"/>
<circle cx="308.2" cy="336.1" r="3.26" fill="#6C63FF" opacity="0.62" filter="url(#glow)"/>
<circle cx="303.2" cy="328.5" r="5.06" fill="#6C63FF" opacity="0.80" filter="url(#glow)"/>
<circle cx="298.5" cy="320.6" r="4.81" fill="#6C63FF" opacity="0.78" filter="url(#glow)"/>
<circle cx="294.3" cy="312.4" r="4.04" fill="#6C63FF" opacity="0.70" filter="url(#glow)"/>
<circle cx="290.6" cy="303.9" r="5.74" fill="#b9b3ff" opacity="0.87" filter="url(#glow)"/>
<circle cx="287.3" cy="295.3" r="5.59" fill="#b9b3ff" opacity="0.86" filter="url(#glow)"/>
<circle cx="284.4" cy="286.4" r="6.35" fill="#b9b3ff" opacity="0.93" filter="url(#glow)"/>
<circle cx="282.1" cy="277.3" r="5.10" fill="#6C63FF" opacity="0.81" filter="url(#glow)"/>
<circle cx="280.3" cy="268.1" r="5.18" fill="#6C63FF" opacity="0.82" filter="url(#glow)"/>
<circle cx="278.9" cy="258.8" r="5.76" fill="#b9b3ff" opacity="0.87" filter="url(#glow)"/>
<circle cx="278.1" cy="249.4" r="5.99" fill="#b9b3ff" opacity="0.90" filter="url(#glow)"/>
<circle cx="277.8" cy="239.9" r="4.17" fill="#6C63FF" opacity="0.71" filter="url(#glow)"/>
<circle cx="278.0" cy="230.4" r="2.88" fill="#6C63FF" opacity="0.58" filter="url(#glow)"/>
<circle cx="278.7" cy="220.9" r="3.26" fill="#6C63FF" opacity="0.62" filter="url(#glow)"/>
<circle cx="280.0" cy="211.4" r="4.92" fill="#6C63FF" opacity="0.79" filter="url(#glow)"/>
<circle cx="281.8" cy="202.0" r="4.54" fill="#6C63FF" opacity="0.75" filter="url(#glow)"/>
<circle cx="284.1" cy="192.6" r="5.08" fill="#6C63FF" opacity="0.80" filter="url(#glow)"/>
<circle cx="287.0" cy="183.4" r="3.73" fill="#6C63FF" opacity="0.67" filter="url(#glow)"/>
<circle cx="290.3" cy="174.3" r="4.72" fill="#6C63FF" opacity="0.77" filter="url(#glow)"/>
<circle cx="294.2" cy="165.3" r="4.72" fill="#6C63FF" opacity="0.77" filter="url(#glow)"/>
<circle cx="298.6" cy="156.6" r="5.53" fill="#b9b3ff" opacity="0.85" filter="url(#glow)"/>
<circle cx="303.4" cy="148.1" r="4.33" fill="#6C63FF" opacity="0.73" filter="url(#glow)"/>
<circle cx="308.8" cy="139.8" r="3.40" fill="#6C63FF" opacity="0.63" filter="url(#glow)"/>
<circle cx="314.6" cy="131.8" r="3.73" fill="#6C63FF" opacity="0.67" filter="url(#glow)"/>
<circle cx="320.9" cy="124.1" r="3.90" fill="#6C63FF" opacity="0.68" filter="url(#glow)"/>
<circle cx="327.6" cy="116.8" r="4.42" fill="#6C63FF" opacity="0.74" filter="url(#glow)"/>
<circle cx="334.7" cy="109.8" r="4.50" fill="#6C63FF" opacity="0.75" filter="url(#glow)"/>
<circle cx="342.2" cy="103.2" r="2.88" fill="#6C63FF" opacity="0.58" filter="url(#glow)"/>
<circle cx="385.0" cy="76.7" r="3.40" fill="#6C63FF" opacity="0.63" filter="url(#glow)"/>
<circle cx="394.4" cy="72.8" r="3.53" fill="#6C63FF" opacity="0.65" filter="url(#glow)"/>
<circle cx="414.0" cy="66.6" r="3.09" fill="#6C63FF" opacity="0.60" filter="url(#glow)"/>
<circle cx="424.0" cy="64.3" r="4.11" fill="#6C63FF" opacity="0.71" filter="url(#glow)"/>
<circle cx="434.2" cy="62.5" r="4.22" fill="#6C63FF" opacity="0.72" filter="url(#glow)"/>
<circle cx="444.5" cy="61.3" r="3.53" fill="#6C63FF" opacity="0.65" filter="url(#glow)"/>
<circle cx="454.9" cy="60.7" r="4.17" fill="#6C63FF" opacity="0.71" filter="url(#glow)"/>
<circle cx="465.3" cy="60.7" r="3.09" fill="#6C63FF" opacity="0.60" filter="url(#glow)"/>
<circle cx="506.9" cy="66.3" r="4.04" fill="#6C63FF" opacity="0.70" filter="url(#glow)"/>
<circle cx="527.2" cy="72.5" r="5.39" fill="#6C63FF" opacity="0.84" filter="url(#glow)"/>
<circle cx="537.1" cy="76.5" r="7.00" fill="#ffffff" opacity="1.00" filter="url(#glow)"/>
<circle cx="546.8" cy="81.0" r="4.33" fill="#6C63FF" opacity="0.73" filter="url(#glow)"/>
<circle cx="556.3" cy="86.1" r="2.62" fill="#6C63FF" opacity="0.55" filter="url(#glow)"/>
<circle cx="565.5" cy="91.7" r="5.44" fill="#6C63FF" opacity="0.84" filter="url(#glow)"/>
<circle cx="574.4" cy="97.8" r="5.53" fill="#b9b3ff" opacity="0.85" filter="url(#glow)"/>
<circle cx="582.9" cy="104.4" r="5.02" fill="#6C63FF" opacity="0.80" filter="url(#glow)"/>
<circle cx="591.2" cy="111.5" r="5.04" fill="#6C63FF" opacity="0.80" filter="url(#glow)"/>
<circle cx="599.0" cy="119.1" r="2.24" fill="#6C63FF" opacity="0.52" filter="url(#glow)"/>
<circle cx="626.1" cy="153.5" r="2.62" fill="#6C63FF" opacity="0.55" filter="url(#glow)"/>
<circle cx="641.2" cy="183.1" r="3.40" fill="#6C63FF" opacity="0.63" filter="url(#glow)"/>
<circle cx="655.4" cy="282.7" r="2.24" fill="#6C63FF" opacity="0.52" filter="url(#glow)"/>
<circle cx="653.9" cy="294.1" r="5.47" fill="#6C63FF" opacity="0.84" filter="url(#glow)"/>
<circle cx="651.7" cy="305.4" r="5.51" fill="#6C63FF" opacity="0.85" filter="url(#glow)"/>
<circle cx="649.0" cy="316.5" r="5.29" fill="#6C63FF" opacity="0.83" filter="url(#glow)"/>
<circle cx="645.6" cy="327.6" r="3.73" fill="#6C63FF" opacity="0.67" filter="url(#glow)"/>
<circle cx="641.5" cy="338.5" r="4.46" fill="#6C63FF" opacity="0.74" filter="url(#glow)"/>
<circle cx="636.9" cy="349.1" r="3.98" fill="#6C63FF" opacity="0.69" filter="url(#glow)"/>
<circle cx="625.9" cy="369.7" r="4.58" fill="#6C63FF" opacity="0.75" filter="url(#glow)"/>
<circle cx="619.6" cy="379.5" r="2.24" fill="#6C63FF" opacity="0.52" filter="url(#glow)"/>
<circle cx="612.7" cy="389.0" r="3.26" fill="#6C63FF" opacity="0.62" filter="url(#glow)"/>
<circle cx="605.2" cy="398.2" r="5.18" fill="#6C63FF" opacity="0.82" filter="url(#glow)"/>
<circle cx="597.3" cy="406.9" r="3.73" fill="#6C63FF" opacity="0.67" filter="url(#glow)"/>
<circle cx="588.8" cy="415.2" r="3.40" fill="#6C63FF" opacity="0.63" filter="url(#glow)"/>
<circle cx="579.9" cy="423.1" r="4.94" fill="#6C63FF" opacity="0.79" filter="url(#glow)"/>
<circle cx="570.5" cy="430.5" r="3.09" fill="#6C63FF" opacity="0.60" filter="url(#glow)"/>
<circle cx="560.7" cy="437.3" r="6.06" fill="#b9b3ff" opacity="0.90" filter="url(#glow)"/>
<circle cx="550.6" cy="443.6" r="6.13" fill="#b9b3ff" opacity="0.91" filter="url(#glow)"/>
<circle cx="540.0" cy="449.4" r="6.08" fill="#b9b3ff" opacity="0.91" filter="url(#glow)"/>
<circle cx="529.2" cy="454.6" r="6.75" fill="#ffffff" opacity="0.97" filter="url(#glow)"/>
<circle cx="518.0" cy="459.2" r="4.17" fill="#6C63FF" opacity="0.71" filter="url(#glow)"/>
<text x="450.0" y="30" text-anchor="middle" font-family="Fira Code, monospace" font-size="15" fill="#c9d1d9">A year of commits, one star per day</text>
<text x="450.0" y="484" text-anchor="middle" font-family="Fira Code, monospace" font-size="11" fill="#6b7280">78 active days &#183; 2922 contributions &#183; brightest day 340</text>
</svg>